<?xml version="1.0" standalone="no"?>
<!DOCTYPE svg PUBLIC "-//W3C//DTD SVG 20010904//EN"
 "http://www.w3.org/TR/2001/REC-SVG-20010904/DTD/svg10.dtd">
<svg version="1.0" xmlns="http://www.w3.org/2000/svg"
 width="256.000000pt" height="256.000000pt" viewBox="0 0 256.000000 256.000000"
 preserveAspectRatio="xMidYMid meet">
<metadata>
Created by potrace 1.11, written by Peter Selinger 2001-2013
</metadata>
<g transform="translate(0.000000,256.000000) scale(0.100000,-0.100000)"
fill="#000000" stroke="none">
<path d="M1227 2318 c-51 -11 -74 -24 -240 -132 -203 -132 -256 -166 -502
-326 -120 -78 -230 -153 -242 -166 -61 -66 -58 -34 -59 -684 -1 -657 -2 -646
62 -714 74 -78 6 -73 1017 -74 1014 -1 975 -3 1046 69 70 71 68 55 67 719 -1
655 2 621 -64 687 -15 16 -137 99 -272 186 -135 87 -321 208 -414 268 -210
137 -248 159 -280 165 -54 9 -82 10 -119 2z m571 -388 c344 -222 457 -300 470
-324 14 -28 16 -91 17 -606 0 -544 -1 -576 -19 -612 -37 -77 25 -72 -976 -74
-1011 -1 -957 -5 -996 73 -19 38 -20 63 -19 614 1 672 -12 606 130 698 505
328 800 518 815 524 8 4 40 5 70 4 53 -3 67 -11 508 -297z"/>
<path d="M1883 1422 c-142 -97 -305 -209 -363 -249 -180 -125 -192 -131 -276
-125 -20 2 -78 38 -264 167 -561 388 -590 404 -609 353 -5 -13 -5 -30 0 -39 4
-9 79 -64 166 -123 87 -59 205 -140 263 -180 401 -275 413 -282 502 -272 65 8
87 18 175 79 43 30 221 151 395 270 174 120 318 223 321 230 7 22 -4 44 -28
55 -21 10 -49 -6 -282 -166z"/>
<path d="M1583 949 c-13 -5 -23 -12 -24 -16 0 -4 -2 -16 -4 -26 -2 -12 31 -47
113 -115 64 -53 130 -109 147 -123 80 -70 288 -240 308 -253 28 -18 62 -6 70
24 7 26 -12 47 -133 145 -47 38 -87 72 -90 75 -3 3 -57 48 -120 100 -63 52
-117 97 -120 100 -9 10 -105 87 -115 92 -5 3 -20 2 -32 -3z"/>
<path d="M815 849 c-66 -56 -131 -111 -145 -122 -14 -12 -77 -65 -140 -117
-157 -129 -171 -144 -161 -171 12 -35 45 -42 78 -16 136 105 552 460 555 475
8 29 -10 52 -40 52 -19 -1 -61 -30 -147 -101z"/>
</g>
</svg>
