<?xml version="1.0" standalone="no"?>
<!DOCTYPE svg PUBLIC "-//W3C//DTD SVG 20010904//EN"
 "http://www.w3.org/TR/2001/REC-SVG-20010904/DTD/svg10.dtd">
<svg version="1.0" xmlns="http://www.w3.org/2000/svg"
 width="636.000000pt" height="636.000000pt" viewBox="0 0 636.000000 636.000000"
 preserveAspectRatio="xMidYMid meet">
<metadata>
Created by potrace 1.11, written by Peter Selinger 2001-2013
</metadata>
<g transform="translate(0.000000,636.000000) scale(0.100000,-0.100000)"
fill="#000000" stroke="none">
<path d="M4255 5192 c-41 -14 -2243 -1278 -2267 -1301 -8 -7 49 -111 61 -111
4 0 495 282 1092 626 1140 659 1138 657 1182 668 25 6 -2 -52 -407 -863 l-435
-869 -43 5 c-52 5 -1177 93 -1190 93 -9 0 45 -104 66 -127 7 -7 137 -21 356
-38 190 -14 359 -28 376 -31 l31 -4 -144 -376 -144 -375 39 -71 c22 -39 41
-64 44 -56 61 160 331 864 334 867 1 2 72 -2 157 -9 86 -7 167 -10 181 -6 22
5 39 32 104 162 72 146 79 155 102 151 14 -3 387 -63 830 -133 443 -70 807
-129 810 -131 18 -15 -184 -137 -1155 -697 -600 -346 -1096 -634 -1103 -641
-11 -10 -8 -21 16 -61 16 -27 35 -48 43 -48 27 3 2215 1273 2260 1312 25 22
61 69 79 104 29 54 35 75 38 149 3 63 0 100 -12 135 -27 80 -857 1511 -912
1573 -68 76 -151 114 -259 118 -59 3 -93 -1 -130 -15z m283 -180 c35 -36 862
-1455 889 -1526 6 -17 12 -48 12 -70 1 -35 -1 -38 -21 -33 -13 3 -383 63 -823
133 -440 69 -802 128 -805 131 -6 6 693 1403 702 1403 5 0 25 -17 46 -38z"/>
<path d="M1623 3683 c-142 -82 -226 -136 -232 -150 -19 -41 10 -83 55 -83 20
0 446 247 462 267 6 9 12 25 12 35 0 23 -35 58 -58 58 -9 0 -117 -57 -239
-127z"/>
<path d="M1155 3414 c-89 -53 -105 -84 -65 -124 28 -28 49 -25 123 18 73 41
94 70 76 105 -26 48 -54 48 -134 1z"/>
<path d="M1880 3236 c-221 -128 -257 -157 -234 -193 6 -10 22 -24 36 -32 24
-14 35 -9 247 114 128 73 229 138 239 152 14 23 14 28 1 52 -28 50 -55 42
-289 -93z"/>
<path d="M854 3238 c-39 -26 -50 -39 -52 -65 -2 -23 3 -35 20 -47 32 -23 47
-20 103 17 56 36 70 74 39 108 -25 27 -55 24 -110 -13z"/>
<path d="M1411 2963 c-35 -21 -69 -46 -75 -55 -15 -25 4 -71 35 -82 22 -8 38
-2 100 35 64 38 74 48 77 75 4 36 -19 64 -51 64 -12 0 -51 -17 -86 -37z"/>
<path d="M1110 2791 c-41 -25 -45 -31 -45 -66 0 -71 58 -77 146 -15 34 25 39
68 11 93 -26 24 -60 20 -112 -12z"/>
<path d="M2440 2269 c-112 -66 -212 -127 -222 -136 -37 -33 -9 -93 43 -93 35
0 451 242 468 273 13 22 13 28 -2 51 -31 46 -63 36 -287 -95z"/>
<path d="M1965 1993 c-33 -19 -63 -40 -67 -47 -13 -19 -9 -54 8 -70 24 -25 60
-19 130 20 69 39 85 66 65 110 -16 35 -63 31 -136 -13z"/>
<path d="M1667 1820 c-41 -25 -47 -34 -47 -63 0 -40 15 -57 52 -57 27 0 105
41 120 64 13 19 9 54 -8 70 -24 24 -65 19 -117 -14z"/>
<path d="M2775 1709 c-116 -67 -218 -128 -227 -137 -36 -31 -11 -102 37 -102
17 0 423 229 458 258 36 31 9 102 -39 102 -10 0 -114 -55 -229 -121z"/>
<path d="M2292 1432 c-77 -46 -93 -81 -55 -124 24 -27 47 -22 123 22 85 50
100 80 60 120 -28 28 -55 24 -128 -18z"/>
<path d="M1998 1260 c-51 -32 -67 -64 -49 -99 20 -36 54 -36 114 -2 57 33 72
57 57 96 -17 44 -57 46 -122 5z"/>
</g>
</svg>
